# xmcd
#
# Track frame offsets:
# 150
# 14494
# 28897
# 47717
# 64940
# 88186
# 107341
# 129333
# 145762
# 165065
# 187062
# 208039
# 230915
# 250683
# 272903
# 285806
#
# Disc length: 4025 seconds
#
#
# Revision: 2
# Processed by: cddbd v1.5.2PL0 Copyright (c) Steve Scherf et al.
# Submitted via: FreeRIP 2.951 
#
DISCID=df0fb710
DTITLE=????? - ??? ???
DYEAR=1999
DGENRE=Pop
TTITLE0=?????
TTITLE1=??????
TTITLE2=????
TTITLE3=?
TTITLE4=?????
TTITLE5=?????
TTITLE6=????
TTITLE7=?????
TTITLE8=????
TTITLE9=?????
TTITLE10=????
TTITLE11=???
TTITLE12=????
TTITLE13=????????
TTITLE14=????
TTITLE15=???
EXTD=
EXTT0=
EXTT1=
EXTT2=
EXTT3=
EXTT4=
EXTT5=
EXTT6=
EXTT7=
EXTT8=
EXTT9=
EXTT10=
EXTT11=
EXTT12=
EXTT13=
EXTT14=
EXTT15=
PLAYORDER=
